<?xml version="1.0" encoding="UTF-8" standalone="no"?>
<svg
   xmlns:dc="http://purl.org/dc/elements/1.1/"
   xmlns:cc="http://creativecommons.org/ns#"
   xmlns:rdf="http://www.w3.org/1999/02/22-rdf-syntax-ns#"
   xmlns:svg="http://www.w3.org/2000/svg"
   xmlns="http://www.w3.org/2000/svg"
   width="100%"
   height="100%"
   viewBox="0 0 32 32"
   version="1.1"
   xml:space="preserve"
   style="fill-rule:evenodd;clip-rule:evenodd;stroke-linecap:round;stroke-linejoin:round;stroke-miterlimit:1.5;"
   id="svg224"><metadata
     id="metadata230"><rdf:RDF><cc:Work
         rdf:about=""><dc:format>image/svg+xml</dc:format><dc:type
           rdf:resource="http://purl.org/dc/dcmitype/StillImage" /><dc:title></dc:title></cc:Work></rdf:RDF></metadata><defs
     id="defs228"><clipPath
       id="_clip1-3"><rect
         x="0"
         y="0"
         width="32"
         height="32"
         id="rect478" /></clipPath><clipPath
       id="_clip1-2"><rect
         x="0"
         y="0"
         width="32"
         height="32"
         id="rect845" /></clipPath><clipPath
       id="_clip2-9"><circle
         cx="19"
         cy="11"
         r="5"
         id="circle871" /></clipPath><clipPath
       id="_clip1-7"><rect
         x="0"
         y="0"
         width="32"
         height="32"
         id="rect734" /></clipPath><clipPath
       id="clipPath914"><circle
         cx="19"
         cy="11"
         r="5"
         id="circle912" /></clipPath><clipPath
       id="_clip1-8"><rect
         x="0"
         y="0"
         width="32"
         height="32"
         id="rect845-5" /></clipPath><clipPath
       id="_clip2-0"><circle
         cx="19"
         cy="11"
         r="5"
         id="circle871-6" /></clipPath><clipPath
       id="clipPath1454"><circle
         cx="19"
         cy="11"
         r="5"
         id="circle1452" /></clipPath></defs><clipPath
     id="_clip1"><rect
       x="0"
       y="0"
       width="32"
       height="32"
       id="rect163" /></clipPath><rect
     id="crt_prompt"
     x="0"
     y="0"
     width="32"
     height="32"
     style="clip-rule:evenodd;fill:none;fill-rule:evenodd;stroke-linejoin:round;stroke-miterlimit:1.41421" /><g
     id="layer1" /><g
     id="layer2"><g
       id="g344"
       transform="matrix(0.79483303,0,0,0.79483303,3.5206819,1.1685035)"
       style="clip-rule:evenodd;fill-rule:evenodd;stroke-linecap:round;stroke-linejoin:round;stroke-miterlimit:1.5"><rect
         id="ferris_smile"
         x="3.2307043"
         y="3.3889587"
         width="25.374796"
         height="25.374796"
         style="fill:none;stroke-width:0.792962" /><g
         clip-path="url(#_clip1)"
         id="g222"
         transform="matrix(0.79296236,0,0,0.79296236,3.2307042,3.3889585)"><g
           id="Layer1"><path
             d="M 2,7.281 C 2,6.973 2.142,6.682 2.385,6.493 2.627,6.303 2.944,6.236 3.243,6.311 3.787,6.447 4.42,6.605 4.942,6.736 5.573,6.893 6.233,6.627 6.578,6.075 6.998,5.404 7.562,4.501 7.97,3.848 8.111,3.623 8.335,3.463 8.593,3.404 8.852,3.344 9.123,3.389 9.348,3.53 9.973,3.921 10.827,4.454 11.488,4.868 12.08,5.238 12.85,5.15 13.344,4.656 13.94,4.06 14.73,3.27 15.293,2.707 c 0.39,-0.39 1.024,-0.39 1.414,0 0.563,0.563 1.353,1.353 1.949,1.949 0.494,0.494 1.264,0.582 1.856,0.212 0.661,-0.414 1.515,-0.947 2.14,-1.338 0.225,-0.141 0.496,-0.186 0.755,-0.126 0.258,0.059 0.482,0.219 0.623,0.444 0.408,0.653 0.972,1.556 1.392,2.227 0.345,0.552 1.005,0.818 1.636,0.661 C 27.58,6.605 28.213,6.447 28.757,6.311 29.056,6.236 29.373,6.303 29.615,6.493 29.858,6.682 30,6.973 30,7.281 V 23 c 0,3.866 -3.134,7 -7,7 -1.68,0 -3,0 -3,0 v -1.158 c 0,-1.152 0.357,-2.229 0.972,-3.118 -3.291,0.551 -6.653,0.551 -9.944,0 C 11.643,26.613 12,27.69 12,28.842 V 30 c 0,0 -1.32,0 -3,0 -3.866,0 -7,-3.134 -7,-7 z"
             style="fill:none;stroke:#000000;stroke-width:4px"
             id="path166" /></g><g
           id="emoji"><path
             d="M 2,19 V 7.281 C 2,6.973 2.142,6.682 2.385,6.493 2.627,6.303 2.944,6.236 3.243,6.311 3.787,6.447 4.42,6.605 4.942,6.736 5.573,6.893 6.233,6.627 6.578,6.075 6.998,5.404 7.562,4.501 7.97,3.848 8.111,3.623 8.335,3.463 8.593,3.404 8.852,3.344 9.123,3.389 9.348,3.53 9.973,3.921 10.827,4.454 11.488,4.868 12.08,5.238 12.85,5.15 13.344,4.656 13.94,4.06 14.73,3.27 15.293,2.707 c 0.39,-0.39 1.024,-0.39 1.414,0 0.563,0.563 1.353,1.353 1.949,1.949 0.494,0.494 1.264,0.582 1.856,0.212 0.661,-0.414 1.515,-0.947 2.14,-1.338 0.225,-0.141 0.496,-0.186 0.755,-0.126 0.258,0.059 0.482,0.219 0.623,0.444 0.408,0.653 0.972,1.556 1.392,2.227 0.345,0.552 1.005,0.818 1.636,0.661 C 27.58,6.605 28.213,6.447 28.757,6.311 29.056,6.236 29.373,6.303 29.615,6.493 29.858,6.682 30,6.973 30,7.281 V 19 l -1.514,4.541 -2.359,-0.158 c -1.68,0.6 -7.577,2.646 -7.579,2.646 -1.696,0.144 -3.401,0.144 -5.096,0 -0.004,0 -5.896,-2.045 -7.579,-2.646 l -2.359,0.158 z"
             style="fill:#ec7235"
             id="path169" /><path
             d="M 2,19 V 10.281 H 30 V 19 l -1.514,4.541 -2.359,0.842 c -6.549,2.339 -13.705,2.339 -20.254,0 L 3.514,23.541 Z"
             style="fill:none"
             id="path171" /><clipPath
             id="_clip2"><path
               d="M 2,19 V 10.281 H 30 V 19 l -1.514,4.541 -2.359,0.842 c -6.549,2.339 -13.705,2.339 -20.254,0 L 3.514,23.541 Z"
               id="path173" /></clipPath><g
             clip-path="url(#_clip2)"
             id="g180"><path
               d="m 20,30 v -1.158 c 0,-2.766 2.06,-5.099 4.804,-5.443 C 26.503,23.187 28,23 28,23 l 4,-8 v 8 c 0,1.857 -0.738,3.637 -2.05,4.95 C 28.637,29.263 26.857,30 25,30 Z"
               style="fill:none;stroke:#a53a0c;stroke-width:4px;stroke-linecap:square"
               id="path176" /><path
               d="M 12,30 V 28.842 C 12,26.076 9.94,23.743 7.196,23.399 5.497,23.187 4,23 4,23 L 0,15 v 8 c 0,1.857 0.738,3.637 2.05,4.95 C 3.363,29.263 5.143,30 7,30 Z"
               style="fill:none;stroke:#a53a0c;stroke-width:4px;stroke-linecap:square"
               id="path178" /></g><g
             id="g186"><path
               d="m 20.064,28 c 0.369,-2.385 2.279,-4.293 4.74,-4.601 C 26.503,23.187 28,23 28,23 l 2,-4 v 4 c 0,3.866 -3.134,7 -7,7 -1.68,0 -3,0 -3,0 v -1 l 0.481,-0.585 z"
               style="fill:#ec7235"
               id="path182" /><path
               d="m 20.064,28 h 0.208 c 0.466,0 0.913,-0.185 1.243,-0.515 0.387,-0.387 0.931,-0.931 1.411,-1.411 C 23.614,25.386 24.546,25 25.518,25 H 26 c 0,0 -0.233,0.467 -0.541,1.081 C 24.565,27.87 22.737,29 20.737,29 H 20 V 28.842 C 20,28.556 20.022,28.275 20.064,28 Z"
               style="fill:#b54b12"
               id="path184" /></g><g
             id="g192"><path
               d="M 11.936,28 C 11.567,25.615 9.657,23.707 7.196,23.399 5.497,23.187 4,23 4,23 L 2,19 v 4 c 0,3.866 3.134,7 7,7 1.68,0 3,0 3,0 v -1 l -0.481,-0.585 z"
               style="fill:#ec7235"
               id="path188" /><path
               d="M 11.936,28 H 11.728 C 11.262,28 10.815,27.815 10.485,27.485 10.098,27.098 9.554,26.554 9.074,26.074 8.386,25.386 7.454,25 6.482,25 H 6 c 0,0 0.233,0.467 0.541,1.081 C 7.435,27.87 9.263,29 11.263,29 H 12 V 28.842 C 12,28.556 11.978,28.275 11.936,28 Z"
               style="fill:#b54b12"
               id="path190" /></g><g
             id="g198"><path
               d="m 22.876,12.056 c -1.937,-0.341 -3.231,0.919 -3.601,2.373 -0.448,1.763 -0.375,3.18 0.418,4.218 0.872,1.142 2.33,1.688 3.605,1.137 1.724,-0.745 2.202,-1.752 2.202,-3.813 0,-2.06 -0.921,-3.614 -2.624,-3.915 z"
               id="path194" /><path
               d="m 22.5,13.77 c 0,-0.331 -0.131,-0.648 -0.366,-0.882 -0.234,-0.234 -0.551,-0.366 -0.882,-0.366 -10e-4,0 -10e-4,0 -0.002,0 -0.332,0 -0.649,0.132 -0.884,0.367 C 20.132,13.123 20,13.441 20,13.772 c 0,0.318 0,0.66 0,0.978 0,0.332 0.132,0.649 0.366,0.884 0.235,0.234 0.552,0.366 0.884,0.366 0.001,0 0.001,0 0.002,0 0.331,0 0.648,-0.131 0.882,-0.366 0.235,-0.234 0.366,-0.551 0.366,-0.882 0,-0.319 0,-0.662 0,-0.982 z"
               style="fill:#e5e5e5"
               id="path196" /></g><g
             id="g204"><path
               d="m 10.376,12.056 c -1.937,-0.341 -3.231,0.919 -3.601,2.373 -0.448,1.763 -0.375,3.18 0.418,4.218 0.872,1.142 2.33,1.688 3.605,1.137 C 12.522,19.039 13,18.032 13,15.971 c 0,-2.06 -0.921,-3.614 -2.624,-3.915 z"
               id="path200" /><path
               d="M 10,13.77 C 10,13.439 9.869,13.122 9.634,12.888 9.4,12.654 9.083,12.522 8.752,12.522 c -0.001,0 -0.001,0 -0.002,0 -0.332,0 -0.649,0.132 -0.884,0.367 -0.234,0.234 -0.366,0.552 -0.366,0.883 0,0.318 0,0.66 0,0.978 0,0.332 0.132,0.649 0.366,0.884 C 8.101,15.868 8.418,16 8.75,16 8.751,16 8.751,16 8.752,16 9.083,16 9.4,15.869 9.634,15.634 9.869,15.4 10,15.083 10,14.752 10,14.433 10,14.09 10,13.77 Z"
               style="fill:#e5e5e5"
               id="path202" /></g><g
             id="g219"><path
               d="m 11.718,21.655 c -0.186,-0.309 -0.191,-0.694 -0.013,-1.007 0.177,-0.314 0.51,-0.508 0.87,-0.508 1.911,0 4.939,0 6.85,0 0.36,0 0.693,0.194 0.87,0.508 0.178,0.313 0.173,0.698 -0.013,1.007 -0.225,0.376 -0.471,0.786 -0.709,1.182 -0.753,1.255 -2.109,2.023 -3.572,2.023 -0.001,0 -0.001,0 -0.002,0 -1.463,0 -2.819,-0.768 -3.572,-2.023 -0.238,-0.396 -0.484,-0.806 -0.709,-1.182 z"
               id="path206" /><clipPath
               id="_clip3"><path
                 d="m 11.718,21.655 c -0.186,-0.309 -0.191,-0.694 -0.013,-1.007 0.177,-0.314 0.51,-0.508 0.87,-0.508 1.911,0 4.939,0 6.85,0 0.36,0 0.693,0.194 0.87,0.508 0.178,0.313 0.173,0.698 -0.013,1.007 -0.225,0.376 -0.471,0.786 -0.709,1.182 -0.753,1.255 -2.109,2.023 -3.572,2.023 -0.001,0 -0.001,0 -0.002,0 -1.463,0 -2.819,-0.768 -3.572,-2.023 -0.238,-0.396 -0.484,-0.806 -0.709,-1.182 z"
                 id="path208" /></clipPath><g
               clip-path="url(#_clip3)"
               id="g213"><path
                 d="m 11,25.5 c 0,0 0.808,-0.808 1.586,-1.586 C 13.491,23.009 14.719,22.5 16,22.5 c 0,0 0,0 0,0 1.281,0 2.509,0.509 3.414,1.414 C 20.192,24.692 21,25.5 21,25.5 Z"
                 style="fill:#8b8b8b"
                 id="path211" /></g><path
               d="m 19.425,20.14 0.034,10e-4 0.033,0.002 0.033,0.002 0.034,0.004 0.032,0.005 0.033,0.006 0.032,0.007 0.032,0.009 0.032,0.009 0.031,0.01 0.03,0.011 0.031,0.012 0.03,0.013 0.029,0.014 0.029,0.015 0.029,0.016 0.028,0.017 0.027,0.018 0.027,0.019 0.026,0.019 0.025,0.021 0.025,0.021 0.024,0.022 0.024,0.023 0.023,0.024 0.022,0.024 0.021,0.026 0.021,0.026 0.019,0.027 0.019,0.027 0.018,0.029 0.017,0.029 0.016,0.029 0.015,0.03 0.014,0.031 0.013,0.03 0.012,0.031 0.011,0.032 0.01,0.031 0.008,0.032 0.008,0.032 0.006,0.032 0.006,0.032 0.004,0.033 0.003,0.032 0.003,0.033 0.001,0.032 v 0.033 l -0.001,0.033 -0.002,0.032 -0.003,0.033 -0.004,0.032 -0.005,0.032 -0.007,0.033 -0.007,0.031 -0.008,0.032 -0.01,0.032 -0.01,0.031 -0.012,0.031 -0.012,0.031 -0.014,0.03 -0.015,0.03 -0.016,0.03 -0.017,0.029 -0.709,1.182 -0.036,0.058 -0.036,0.058 -0.038,0.057 -0.038,0.057 -0.039,0.055 -0.04,0.055 -0.041,0.054 -0.041,0.053 -0.043,0.053 -0.043,0.051 -0.044,0.051 -0.045,0.051 -0.045,0.049 -0.046,0.049 -0.047,0.047 -0.048,0.047 -0.048,0.047 -0.049,0.045 -0.05,0.044 -0.05,0.044 -0.051,0.043 -0.052,0.042 -0.052,0.041 -0.053,0.04 -0.054,0.04 -0.054,0.038 -0.055,0.038 -0.055,0.037 -0.056,0.036 -0.056,0.035 -0.057,0.034 -0.058,0.033 -0.058,0.032 -0.058,0.031 -0.059,0.031 -0.06,0.029 -0.06,0.029 -0.06,0.027 -0.061,0.027 -0.061,0.026 -0.062,0.024 -0.062,0.024 -0.063,0.023 -0.063,0.021 -0.063,0.021 -0.064,0.02 -0.064,0.018 -0.064,0.018 -0.065,0.017 -0.065,0.015 -0.066,0.015 -0.066,0.014 -0.066,0.012 -0.066,0.011 -0.067,0.011 -0.066,0.009 -0.067,0.008 -0.068,0.008 -0.067,0.006 -0.068,0.005 -0.068,0.004 -0.068,0.002 -0.069,0.002 -0.068,10e-4 H 15.999 L 15.931,24.859 15.862,24.857 15.794,24.855 15.726,24.851 15.658,24.846 15.591,24.84 15.523,24.832 15.456,24.824 15.39,24.815 15.323,24.804 15.257,24.793 15.191,24.781 15.125,24.767 15.059,24.752 14.994,24.737 14.929,24.72 l -0.064,-0.018 -0.064,-0.018 -0.064,-0.02 -0.063,-0.021 -0.063,-0.021 -0.063,-0.023 -0.062,-0.024 -0.062,-0.024 -0.061,-0.026 -0.061,-0.027 -0.06,-0.027 -0.06,-0.029 -0.06,-0.029 -0.059,-0.031 -0.058,-0.031 -0.058,-0.032 -0.058,-0.033 -0.057,-0.034 -0.056,-0.035 -0.056,-0.036 -0.055,-0.037 -0.055,-0.038 -0.054,-0.038 -0.054,-0.04 -0.053,-0.04 -0.052,-0.041 -0.052,-0.042 -0.051,-0.043 -0.05,-0.044 -0.05,-0.044 -0.049,-0.045 -0.048,-0.047 -0.048,-0.047 -0.047,-0.047 -0.046,-0.049 -0.045,-0.049 -0.045,-0.051 -0.044,-0.051 -0.043,-0.051 -0.043,-0.053 -0.041,-0.053 -0.041,-0.054 -0.04,-0.055 -0.039,-0.055 -0.038,-0.057 -0.038,-0.057 -0.036,-0.058 -0.036,-0.058 -0.709,-1.182 -0.017,-0.029 -0.016,-0.03 -0.015,-0.03 -0.014,-0.03 -0.012,-0.031 -0.012,-0.031 -0.01,-0.031 -0.01,-0.032 -0.008,-0.032 -0.007,-0.031 -0.007,-0.033 -0.005,-0.032 -0.004,-0.032 -0.003,-0.033 -0.002,-0.032 -0.001,-0.033 V 21.12 l 0.001,-0.032 0.003,-0.033 0.003,-0.032 0.004,-0.033 0.006,-0.032 0.006,-0.032 0.008,-0.032 0.008,-0.032 0.01,-0.031 0.011,-0.032 0.012,-0.031 0.013,-0.03 0.014,-0.031 0.015,-0.03 0.016,-0.029 0.017,-0.029 0.018,-0.029 0.019,-0.027 0.019,-0.027 0.021,-0.026 0.021,-0.026 0.022,-0.024 0.023,-0.024 0.024,-0.023 0.024,-0.022 0.025,-0.021 0.025,-0.021 0.026,-0.019 0.027,-0.019 0.027,-0.018 0.028,-0.017 0.029,-0.016 0.029,-0.015 0.029,-0.014 0.03,-0.013 0.031,-0.012 0.03,-0.011 0.031,-0.01 0.032,-0.009 0.032,-0.009 0.032,-0.007 0.033,-0.006 0.032,-0.005 0.034,-0.004 0.033,-0.002 0.033,-0.002 0.034,-10e-4 z m -6.842,1 -0.008,10e-4 0.004,0.007 0.703,1.171 0.03,0.048 0.027,0.044 0.029,0.043 0.029,0.043 0.03,0.042 0.03,0.042 0.031,0.041 0.032,0.04 0.032,0.04 0.033,0.04 0.033,0.038 0.034,0.039 0.035,0.037 0.035,0.037 0.035,0.036 0.036,0.036 0.037,0.035 0.037,0.035 0.038,0.033 0.038,0.034 0.039,0.032 0.039,0.032 0.04,0.031 0.04,0.031 0.041,0.03 0.041,0.029 0.042,0.029 0.042,0.028 0.042,0.027 0.043,0.027 0.044,0.025 0.043,0.026 0.044,0.024 0.045,0.024 0.045,0.023 0.045,0.022 0.046,0.022 0.045,0.021 0.047,0.02 0.046,0.02 0.047,0.018 0.048,0.018 0.047,0.018 0.048,0.016 0.048,0.016 0.049,0.015 0.048,0.014 0.049,0.014 0.05,0.012 0.049,0.012 0.05,0.011 0.05,0.01 0.05,0.01 0.05,0.009 0.051,0.008 0.051,0.007 0.05,0.006 0.052,0.005 0.051,0.005 0.052,0.004 0.051,0.003 0.052,0.002 0.052,0.001 0.053,10e-4 0.053,-10e-4 0.052,-0.001 0.052,-0.002 0.051,-0.003 0.052,-0.004 0.051,-0.005 0.052,-0.005 0.05,-0.006 0.051,-0.007 0.051,-0.008 0.05,-0.009 0.05,-0.01 0.05,-0.01 0.05,-0.011 0.049,-0.012 0.05,-0.012 0.049,-0.014 0.048,-0.014 0.049,-0.015 0.048,-0.016 0.048,-0.016 0.047,-0.018 0.048,-0.018 0.047,-0.018 0.046,-0.02 0.047,-0.02 0.045,-0.021 0.046,-0.022 0.045,-0.022 0.045,-0.023 0.045,-0.024 0.044,-0.024 0.043,-0.026 0.044,-0.025 0.043,-0.027 0.042,-0.027 0.042,-0.028 0.042,-0.029 0.041,-0.029 0.041,-0.03 0.04,-0.031 0.04,-0.031 0.039,-0.032 0.039,-0.033 0.038,-0.033 0.038,-0.033 0.037,-0.035 0.037,-0.035 0.036,-0.036 0.035,-0.036 0.035,-0.037 0.035,-0.037 0.034,-0.039 0.033,-0.038 0.033,-0.04 0.032,-0.04 0.032,-0.04 0.031,-0.041 0.03,-0.042 0.03,-0.042 0.029,-0.043 0.029,-0.043 0.027,-0.044 0.03,-0.048 0.703,-1.171 0.004,-0.007 -0.008,-10e-4 z"
               id="path215" /><path
               d="m 19.734,20 0.034,0.001 0.033,10e-4 0.033,0.003 0.033,0.004 0.033,0.005 0.033,0.006 0.032,0.007 0.032,0.008 0.031,0.009 0.032,0.011 0.03,0.011 0.031,0.012 0.03,0.013 0.029,0.014 0.029,0.015 0.028,0.016 0.028,0.017 0.028,0.018 0.026,0.018 0.027,0.02 0.025,0.02 0.025,0.022 0.024,0.022 0.024,0.023 0.023,0.024 0.022,0.024 0.021,0.025 0.02,0.026 0.02,0.027 0.019,0.028 0.018,0.028 0.017,0.029 0.016,0.03 0.015,0.03 0.014,0.03 0.013,0.031 0.012,0.031 0.011,0.031 0.009,0.032 0.009,0.031 0.008,0.032 0.006,0.033 0.005,0.032 0.005,0.032 0.003,0.033 0.002,0.032 0.002,0.033 v 0.033 l -0.001,0.032 -0.002,0.033 -0.003,0.032 -0.004,0.033 -0.006,0.032 -0.006,0.032 -0.007,0.032 -0.009,0.032 -0.009,0.031 -0.01,0.032 -0.012,0.031 -0.013,0.03 -0.013,0.031 -0.015,0.03 -0.016,0.029 -0.017,0.029 -0.805,1.343 -0.038,0.062 -0.039,0.061 -0.04,0.061 -0.04,0.059 -0.042,0.059 -0.042,0.058 -0.043,0.057 -0.044,0.057 -0.045,0.055 -0.046,0.055 -0.046,0.054 -0.048,0.053 -0.048,0.053 -0.049,0.051 -0.05,0.051 -0.05,0.05 -0.051,0.049 -0.052,0.048 -0.053,0.047 -0.053,0.046 -0.054,0.046 -0.055,0.044 -0.055,0.044 -0.057,0.042 -0.056,0.042 -0.058,0.041 -0.058,0.04 -0.058,0.039 -0.059,0.038 -0.06,0.037 -0.06,0.036 -0.061,0.035 -0.062,0.034 -0.062,0.033 -0.062,0.033 -0.063,0.031 -0.064,0.03 -0.064,0.029 -0.065,0.028 -0.065,0.027 -0.065,0.027 -0.066,0.025 -0.066,0.024 -0.067,0.023 -0.067,0.022 -0.068,0.021 -0.068,0.019 -0.068,0.019 -0.068,0.018 -0.069,0.016 -0.07,0.016 -0.069,0.014 -0.07,0.013 -0.071,0.013 -0.07,0.011 -0.071,0.009 -0.071,0.009 -0.072,0.008 -0.071,0.006 -0.072,0.006 -0.072,0.004 -0.072,0.003 -0.073,10e-4 L 16.001,25 h -0.002 l -0.072,-0.001 -0.073,-10e-4 -0.072,-0.003 -0.072,-0.004 -0.072,-0.006 -0.071,-0.006 -0.072,-0.008 -0.071,-0.009 -0.071,-0.009 -0.07,-0.011 -0.071,-0.013 -0.07,-0.013 -0.069,-0.014 -0.07,-0.016 -0.069,-0.016 -0.068,-0.018 -0.068,-0.019 -0.068,-0.019 -0.068,-0.021 -0.067,-0.022 -0.067,-0.023 -0.066,-0.024 -0.066,-0.025 -0.065,-0.027 -0.065,-0.027 -0.065,-0.028 -0.064,-0.029 -0.064,-0.03 -0.063,-0.031 -0.062,-0.033 -0.062,-0.033 -0.062,-0.034 -0.061,-0.035 -0.06,-0.036 -0.06,-0.037 -0.059,-0.038 -0.058,-0.039 -0.058,-0.04 -0.058,-0.041 -0.056,-0.042 -0.057,-0.042 -0.055,-0.044 -0.055,-0.044 -0.054,-0.046 -0.053,-0.046 -0.053,-0.047 -0.052,-0.048 -0.051,-0.049 -0.05,-0.05 -0.05,-0.051 -0.049,-0.051 -0.048,-0.053 -0.048,-0.053 -0.046,-0.054 -0.046,-0.055 -0.045,-0.055 -0.044,-0.057 -0.043,-0.057 -0.042,-0.058 -0.042,-0.059 -0.04,-0.059 -0.04,-0.061 -0.039,-0.061 -0.038,-0.062 -0.805,-1.343 -0.017,-0.029 -0.016,-0.029 -0.015,-0.03 -0.013,-0.031 -0.013,-0.03 -0.012,-0.031 -0.01,-0.032 -0.009,-0.031 -0.009,-0.032 -0.007,-0.032 -0.006,-0.032 -0.006,-0.032 -0.004,-0.033 -0.003,-0.032 -0.002,-0.033 -10e-4,-0.032 V 20.98 l 0.002,-0.033 0.002,-0.032 0.003,-0.033 0.005,-0.032 0.005,-0.032 0.006,-0.033 0.008,-0.032 0.009,-0.031 0.009,-0.032 0.011,-0.031 0.012,-0.031 0.013,-0.031 0.014,-0.03 0.015,-0.03 0.016,-0.03 0.017,-0.029 0.018,-0.028 0.019,-0.028 0.02,-0.027 0.02,-0.026 0.021,-0.025 0.022,-0.024 0.023,-0.024 0.024,-0.023 0.024,-0.022 0.025,-0.022 0.025,-0.02 0.027,-0.02 0.026,-0.018 0.028,-0.018 0.028,-0.017 0.028,-0.016 0.029,-0.015 0.029,-0.014 0.03,-0.013 0.031,-0.012 0.03,-0.011 0.032,-0.011 0.031,-0.009 0.032,-0.008 0.032,-0.007 0.033,-0.006 0.033,-0.005 0.033,-0.004 0.033,-0.003 0.033,-10e-4 L 12.266,20 Z m -7.459,1 h -0.009 l 0.005,0.007 0.799,1.332 0.031,0.051 0.03,0.048 0.031,0.047 0.031,0.046 0.032,0.045 0.033,0.045 0.033,0.044 0.035,0.044 0.034,0.043 0.036,0.042 0.036,0.042 0.036,0.041 0.037,0.041 0.038,0.04 0.039,0.039 0.039,0.038 0.039,0.038 0.04,0.037 0.041,0.037 0.041,0.036 0.042,0.035 0.043,0.034 0.042,0.034 0.044,0.033 0.044,0.032 0.044,0.032 0.045,0.031 0.045,0.03 0.046,0.029 0.046,0.029 0.047,0.028 0.047,0.027 0.048,0.026 0.048,0.026 0.048,0.025 0.049,0.024 0.049,0.023 0.05,0.023 0.049,0.022 0.051,0.021 0.05,0.02 0.051,0.019 0.052,0.019 0.051,0.018 0.052,0.017 0.052,0.016 0.053,0.015 0.053,0.015 0.053,0.013 0.053,0.013 0.054,0.012 0.053,0.011 0.055,0.01 0.054,0.01 0.054,0.008 0.055,0.008 0.055,0.007 0.055,0.006 0.056,0.005 0.055,0.004 0.056,0.003 0.056,0.002 L 15.943,24 H 16 16.057 l 0.056,-0.002 0.056,-0.002 0.056,-0.003 0.055,-0.004 0.056,-0.005 0.055,-0.006 0.055,-0.007 0.055,-0.008 0.054,-0.008 0.054,-0.01 0.055,-0.01 0.053,-0.011 0.054,-0.012 0.053,-0.013 0.053,-0.013 0.053,-0.015 0.053,-0.015 0.052,-0.016 0.052,-0.017 0.051,-0.018 0.052,-0.019 0.051,-0.019 0.05,-0.02 0.051,-0.021 0.049,-0.022 0.05,-0.023 0.049,-0.023 0.049,-0.024 0.048,-0.025 0.048,-0.026 0.048,-0.026 0.047,-0.027 0.047,-0.028 0.046,-0.029 0.046,-0.029 0.045,-0.03 0.045,-0.031 0.044,-0.032 0.044,-0.032 0.044,-0.033 0.042,-0.034 0.043,-0.034 0.042,-0.035 0.041,-0.036 0.041,-0.037 0.04,-0.037 0.039,-0.038 0.039,-0.038 0.039,-0.039 0.038,-0.04 0.037,-0.041 0.036,-0.041 0.036,-0.042 0.036,-0.042 0.034,-0.043 0.035,-0.044 0.033,-0.044 0.033,-0.045 0.032,-0.045 0.031,-0.046 0.031,-0.047 0.03,-0.048 0.031,-0.051 0.799,-1.332 L 19.734,21 h -0.009 z"
               id="path217" /></g></g></g></g><g
       id="g399"
       transform="matrix(0.41158992,0,0,0.41158992,9.9679086,2.3401821)"
       style="clip-rule:evenodd;fill-rule:evenodd;stroke-linecap:round;stroke-linejoin:round;stroke-miterlimit:1.5"><rect
         id="sparkles"
         x="8.5273933"
         y="-5.2926102"
         width="32"
         height="32"
         style="clip-rule:evenodd;fill:none;fill-rule:evenodd;stroke-linecap:round;stroke-linejoin:round;stroke-miterlimit:1.5" /><g
         id="outline"
         style="clip-rule:evenodd;fill-rule:evenodd;stroke-linecap:round;stroke-linejoin:round;stroke-miterlimit:1.5"
         transform="translate(8.5273935,-5.2926099)"><path
           d="M 14,15 19.5,12.5 22,4 24.5,12.5 30,15 24.5,17.5 22,26 19.5,17.5 Z"
           style="fill:none;stroke:#000000;stroke-width:4px"
           id="path142" /><path
           d="M 4,23 7.5,21.5 9,16 10.5,21.5 14,23 10.5,24.5 9,30 7.5,24.5 Z"
           style="fill:none;stroke:#000000;stroke-width:4px"
           id="path144" /><path
           d="M 2,7 4,6 5,2 6,6 8,7 6,8 5,12 4,8 Z"
           style="fill:none;stroke:#000000;stroke-width:4px"
           id="path146" /></g><g
         id="emoji-5"
         style="clip-rule:evenodd;fill-rule:evenodd;stroke-linecap:round;stroke-linejoin:round;stroke-miterlimit:1.5"
         transform="translate(8.5273935,-5.2926099)"><path
           d="M 14,15 19.5,12.5 22,4 24.5,12.5 30,15 24.5,17.5 22,26 19.5,17.5 Z"
           style="fill:#fdef24"
           id="path149" /><path
           d="M 4,23 7.5,21.5 9,16 10.5,21.5 14,23 10.5,24.5 9,30 7.5,24.5 Z"
           style="fill:#fdef24"
           id="path151" /><path
           d="M 2,7 4,6 5,2 6,6 8,7 6,8 5,12 4,8 Z"
           style="fill:#fdef24"
           id="path153" /></g></g><rect
       id="spellbook"
       x="-15.384254"
       y="16.192984"
       width="14.647779"
       height="14.647779"
       style="clip-rule:evenodd;fill:none;fill-rule:evenodd;stroke-width:0.457743;stroke-linecap:square;stroke-linejoin:round;stroke-miterlimit:1.41421"
       transform="rotate(-36.4)" /><circle
       cx="-6.6871352"
       cy="21.228157"
       r="2.2887154"
       style="clip-rule:evenodd;fill:none;fill-rule:evenodd;stroke-width:0.457743;stroke-linecap:square;stroke-linejoin:round;stroke-miterlimit:1.41421"
       id="circle869"
       transform="rotate(-36.4)" /><g
       id="g1041"
       transform="matrix(0.44730678,0,0,0.44730678,14.792561,6.4870809)"><rect
         id="magic_wand"
         x="6.7220778"
         y="8.4028893"
         width="32"
         height="32"
         style="clip-rule:evenodd;fill:none;fill-rule:evenodd;stroke-linecap:round;stroke-linejoin:round;stroke-miterlimit:1.5" /><g
         clip-path="url(#_clip1-7)"
         id="g747"
         style="clip-rule:evenodd;fill-rule:evenodd;stroke-linecap:round;stroke-linejoin:round;stroke-miterlimit:1.5"
         transform="translate(6.7220777,8.402889)"><g
           id="outline-0"><path
             d="m 2,28 2,2 11,-11 c 0,0 5.818,-6.545 7.531,-8.472 0.263,-0.297 0.25,-0.747 -0.03,-1.027 C 22.5,9.5 22.5,9.5 22.499,9.499 22.219,9.219 21.769,9.206 21.472,9.469 19.545,11.182 13,17 13,17 Z"
             style="fill:#715845;stroke:#000000;stroke-width:4px"
             id="path737" /><path
             d="m 23,16 2,-5 5,-2 -5,-2 -2,-5 -2,5 -5,2 5,2 z"
             style="fill:#fdef24;stroke:#000000;stroke-width:4px"
             id="path739" /></g><g
           id="emoji-9"><path
             d="m 23,16 2,-5 5,-2 -5,-2 -2,-5 -2,5 -5,2 5,2 z"
             style="fill:#fdef24"
             id="path742" /><path
             d="m 2,28 2,2 11,-11 c 0,0 5.818,-6.545 7.531,-8.472 0.263,-0.297 0.25,-0.747 -0.03,-1.027 C 22.5,9.5 22.5,9.5 22.499,9.499 22.219,9.219 21.769,9.206 21.472,9.469 19.545,11.182 13,17 13,17 Z"
             style="fill:#715845"
             id="path744" /></g></g></g><rect
       id="spellbook-4"
       x="-121.73639"
       y="-11.758614"
       width="32"
       height="32"
       style="clip-rule:evenodd;fill:none;fill-rule:evenodd;stroke-linecap:square;stroke-linejoin:round;stroke-miterlimit:1.41421" /><g
       id="g2387"
       transform="matrix(0.41834179,-0.25824715,0.25824715,0.41834179,51.057548,-6.2377097)"><g
         id="outline-6"
         style="clip-rule:evenodd;fill-rule:evenodd;stroke-linecap:square;stroke-linejoin:round;stroke-miterlimit:1.41421"
         transform="translate(-121.73639,-11.758614)"><path
           d="M 26,2 C 26,2 15.837,2 10,2 8.939,2 7.922,2.421 7.172,3.172 6.421,3.922 6,4.939 6,6 6,11.322 6,20.678 6,26 6,27.061 6.421,28.078 7.172,28.828 7.922,29.579 8.939,30 10,30 c 5.837,0 16,0 16,0 z"
           id="path848-2" /><path
           d="M 28,32 H 9.988 L 9.851,31.998 C 9.653,31.991 9.457,31.979 9.26,31.954 8.774,31.894 8.296,31.774 7.84,31.598 7.107,31.315 6.432,30.888 5.864,30.347 5.187,29.703 4.666,28.902 4.351,28.023 4.203,27.608 4.1,27.177 4.046,26.74 4.021,26.543 4.009,26.347 4.002,26.149 3.916,19.429 4,12.708 4,5.987 4.002,5.793 4.01,5.6 4.029,5.407 4.078,4.92 4.186,4.438 4.351,3.977 4.683,3.051 5.244,2.212 5.973,1.552 6.59,0.993 7.324,0.565 8.115,0.304 8.534,0.165 8.968,0.073 9.407,0.029 9.6,0.01 9.794,0.002 9.988,0 H 28 Z"
           style="fill-rule:nonzero"
           id="path850-5" /></g><path
         d="m -95.73639,-9.758614 c 0,0 -10.645,0 -14,0 l -1,1 c 0,3.541 0,15.459 0,19 l 1,1 c 2.727,0 10.273,0 13,0 l 1,-1 c 0,-4.175 0,-20 0,-20 z"
         style="clip-rule:evenodd;fill:#7f522f;fill-rule:evenodd;stroke-linecap:square;stroke-linejoin:round;stroke-miterlimit:1.41421"
         id="path853-6" /><path
         d="m -115.73639,9.249386 0.001,-0.083 c 0.011,-0.295 -0.125,-2.111 0.999,-2.925 0.681,-0.493 0.926,-0.997 1,-1 1.025,-0.013 1.975,1 3,1 v 8 h -5 z m 0,-9.008 v -0.994 c 0.004,-0.348 0.058,-0.69 0.176,-1.018 0.283,-0.791 0.531,-2.955 0.824,-2.988 0.074,-0.006 2.975,1 4,1 v 8 l -2,1 c -0.163,0.002 -2.568,-0.324 -3,0 z m 5,-6 -2,1 c -0.163,0.002 -2.601,-0.299 -3,10e-4 v -1.001 c 0,-1.061 0.421,-2.078 1.172,-2.828 0.75,-0.751 1.767,-1.172 2.828,-1.172 0,0 0,0 0.001,0 l 0.999,0.999 c 0,1.185 0,3.001 0,3.001 z"
         style="clip-rule:evenodd;fill:#523825;fill-rule:evenodd;stroke-linecap:square;stroke-linejoin:round;stroke-miterlimit:1.41421"
         id="path855-2" /><path
         d="m -110.73639,4.241386 v 2 c -1.025,0 -1.05,-0.012 -2.075,10e-4 -0.074,0.003 -0.147,0.007 -0.221,0.014 -0.318,0.035 -0.627,0.113 -0.919,0.242 -0.768,0.341 -1.369,1.003 -1.633,1.801 -0.093,0.281 -0.14,0.572 -0.151,0.867 l -0.001,0.083 v -4.008 c 0.432,-0.324 0.916,-0.577 1.429,-0.747 0.349,-0.115 0.711,-0.192 1.077,-0.229 0.162,-0.016 0.325,-0.022 0.488,-0.024 z m 0,-10 v 2 c -1.025,0 -1.05,-0.012 -2.075,0.001 -0.074,0.003 -0.147,0.007 -0.222,0.014 -0.293,0.033 -0.578,0.1 -0.851,0.213 -0.776,0.322 -1.393,0.969 -1.676,1.76 -0.118,0.328 -0.172,0.67 -0.176,1.018 v 0.994 0 -4.999 c 0.399,-0.3 0.843,-0.54 1.314,-0.708 0.385,-0.138 0.786,-0.228 1.192,-0.269 0.162,-0.016 0.325,-0.022 0.488,-0.024 z"
         style="clip-rule:evenodd;fill:#2e1f15;fill-rule:evenodd;stroke-linecap:square;stroke-linejoin:round;stroke-miterlimit:1.41421"
         id="path857-8" /><rect
         x="-111.73639"
         y="-9.7586136"
         width="2"
         height="21"
         style="clip-rule:evenodd;fill:#2e1f15;fill-rule:evenodd;stroke-linecap:square;stroke-linejoin:round;stroke-miterlimit:1.41421"
         id="rect859-4" /><path
         d="m -95.73639,10.241386 c 0,0 -10.163,0 -16,0 -1.061,0 -2.078,0.421 -2.828,1.172 -0.751,0.75 -1.172,1.767 -1.172,2.828 0,0 0,0 0,0 0,2.209 1.791,4 4,4 5.837,0 16,0 16,0 z"
         style="clip-rule:evenodd;fill:#2e1f15;fill-rule:evenodd;stroke-linecap:square;stroke-linejoin:round;stroke-miterlimit:1.41421"
         id="path861-7" /><path
         d="m -95.73639,12.241386 c 0,0 -11.31,0 -16,0 -0.53,0 -1.039,0.211 -1.414,0.586 -0.375,0.375 -0.586,0.884 -0.586,1.414 0,0 0,0 0,0 0,0.53 0.211,1.039 0.586,1.414 0.375,0.375 0.884,0.586 1.414,0.586 4.69,0 16,0 16,0 z"
         style="clip-rule:evenodd;fill:#ffffff;fill-rule:evenodd;stroke-linecap:square;stroke-linejoin:round;stroke-miterlimit:1.41421"
         id="path863-2" /><circle
         cx="-102.73639"
         cy="-0.758614"
         r="5"
         style="clip-rule:evenodd;fill:none;fill-rule:evenodd;stroke-linecap:square;stroke-linejoin:round;stroke-miterlimit:1.41421"
         id="circle869-6" /><path
         d="m -106.23149,-7.4777566 -1.82491,1.0632098 -0.005,-1.679327 1.82483,-1.0874382 1.62885,-0.00512 0.027,8.58087188 -1.62885,0.005117 z"
         style="clip-rule:evenodd;fill:#2e1f15;fill-opacity:1;fill-rule:nonzero;stroke-width:0.50476;stroke-linecap:round;stroke-linejoin:round;stroke-miterlimit:1.41421"
         id="path1199" /><path
         d="m -99.826801,2.5973647 -1.824909,1.0632098 -0.005,-1.679327 1.824827,-1.0874381 1.628852,-0.005117 0.02696,8.5808714 -1.628851,0.00512 z"
         style="clip-rule:evenodd;fill:#2e1f15;fill-opacity:1;fill-rule:nonzero;stroke-width:0.50476;stroke-linecap:round;stroke-linejoin:round;stroke-miterlimit:1.41421"
         id="path1199-9" /><path
         d="m -100.1045,-0.3460403 c -1.92363,0.006043 -2.88848,-1.0398212 -2.89507,-3.1370871 l -0.008,-2.6615844 c -0.003,-1.0029524 0.23876,-1.7623699 0.72676,-2.2777509 0.4875,-0.5158841 1.20345,-0.7750572 2.14886,-0.7780273 0.961559,-0.00302 1.683664,0.2516344 2.166313,0.7644708 0.482648,0.5123315 0.725296,1.2702267 0.728447,2.2731791 l 0.0084,2.6615844 c 0.0033,1.0362664 -0.234547,1.8204043 -0.713914,2.3524153 -0.479367,0.53201096 -1.199831,0.79977925 -2.161396,0.8028001 z m -0.004,-1.4178628 c 0.455795,-0.00143 0.778883,-0.1493327 0.968757,-0.4442056 0.189368,-0.2948712 0.283275,-0.7701474 0.281219,-1.4248174 l -0.0072,-2.2885689 c -0.0021,-0.65467 -0.100959,-1.1268166 -0.296707,-1.4164399 -0.195748,-0.2896232 -0.517231,-0.4339847 -0.964949,-0.4325782 -0.44772,0.00141 -0.76627,0.1477788 -0.95616,0.4386136 -0.18988,0.2908348 -0.2838,0.7635872 -0.28174,1.4182572 l 0.007,2.2885689 c 0.002,0.65467 0.099,1.1293467 0.29067,1.4230207 0.19172,0.293674 0.51119,0.4395562 0.95891,0.4381496 z"
         style="clip-rule:evenodd;fill:#2e1f15;fill-opacity:1;fill-rule:nonzero;stroke-width:0.50476;stroke-linecap:round;stroke-linejoin:round;stroke-miterlimit:1.41421"
         id="path1201" /><path
         d="m -105.5611,9.7663447 c -1.92363,0.00604 -2.88849,-1.0398212 -2.89508,-3.1370871 l -0.008,-2.6615844 c -0.003,-1.0029525 0.23877,-1.76237 0.72677,-2.2777509 0.48749,-0.5158841 1.20344,-0.77505728 2.14885,-0.77802739 0.96156,-0.003021 1.68367,0.25163449 2.16632,0.76447079 0.48265,0.5123316 0.72529,1.2702267 0.72845,2.2731792 l 0.008,2.6615844 c 0.003,1.0362664 -0.23455,1.8204043 -0.71392,2.3524152 -0.47936,0.532011 -1.19983,0.7997793 -2.16139,0.8028002 z m -0.004,-1.4178628 c 0.4558,-0.00143 0.77889,-0.1493328 0.96876,-0.4442056 0.18937,-0.2948712 0.28328,-0.7701474 0.28122,-1.4248174 l -0.007,-2.2885689 c -0.002,-0.65467 -0.10096,-1.1268166 -0.29671,-1.4164399 -0.19574,-0.2896233 -0.51723,-0.4339848 -0.96495,-0.4325782 -0.44772,0.00141 -0.76626,0.1477788 -0.95615,0.4386136 -0.18989,0.2908347 -0.2838,0.7635871 -0.28175,1.4182571 l 0.007,2.2885689 c 0.002,0.65467 0.099,1.1293468 0.29067,1.4230208 0.19173,0.293674 0.5112,0.4395561 0.95891,0.4381496 z"
         style="clip-rule:evenodd;fill:#2e1f15;fill-opacity:1;fill-rule:nonzero;stroke-width:0.50476;stroke-linecap:round;stroke-linejoin:round;stroke-miterlimit:1.41421"
         id="path1201-2" /></g></g></svg>
